#!OML:ASF H:\ManfredObstacles\Project 1\Capture day 2\Session 1\male.ASF
:FULLY-SPECIFIED
:DEGREES
194
root 1.70618 15.653 3.77917 -172.218 1.37352 177.73
lowerback -6.49444 -0.197789 -5.32688
upperback 1.25762 0.237614 -0.607725
thorax 4.94373 -0.0146705 2.38614
lowerneck -36.826 -1.39199 1.85382
upperneck 40.3469 -1.81837 1.05674
head 24.3338 0.581758 0.0223212
rclavicle -6.4605e-016 -7.95139e-016
rhumerus -32.9087 -19.151 -78.6559
rradius 30.0058
rwrist 31.9435
rhand -5.50323 -6.73341
rfingers 7.12502
rthumb 20.3098 -35.6915
lclavicle -6.4605e-016 -7.95139e-016
lhumerus -22.4722 -1.95055 88.0029
lradius 35.7541
lwrist -37.5231
lhand -2.20201 3.86084
lfingers 7.12502
lthumb 23.4796 32.448
rfemur -15.8016 8.49819 20.4873
rtibia 34.3202
rfoot -21.4452 -23.0633
rtoes -11.6159
lfemur -18.2491 -6.52057 -24.5453
ltibia 33.4578
lfoot -8.24408 23.5398
ltoes 0.08188
195
root 1.70773 15.6561 3.77358 -172.095 1.3627 177.685
lowerback -6.53028 -0.21987 -5.38387
upperback 1.24395 0.215084 -0.605008
thorax 4.95166 -0.0272723 2.41869
lowerneck -36.8634 -1.44243 1.76906
upperneck 40.3888 -1.86277 1.111
head 24.3902 0.563304 0.0574575
rclavicle -9.93923e-016 -1.45113e-014
rhumerus -33.2109 -19.8536 -78.2306
rradius 29.59
rwrist 32.441
rhand -5.42592 -6.68098
rfingers 7.12502
rthumb 20.3841 -35.6311
lclavicle -9.93923e-016 -1.45113e-014
lhumerus -22.6326 -0.697081 87.7866
lradius 34.3702
lwrist -38.2914
lhand -2.05426 3.89104
lfingers 7.12502
lthumb 23.6214 32.46
rfemur -15.9094 8.45466 20.4255
rtibia 34.301
rfoot -21.3309 -23.027
rtoes -11.3714
lfemur -18.3417 -6.55894 -24.5951
ltibia 33.4198
lfoot -8.17059 23.5563
ltoes 0.194451
196
root 1.70955 15.6592 3.7672 -171.989 1.34685 177.642
lowerback -6.55729 -0.241554 -5.43656
upperback 1.2449 0.192532 -0.601038
thorax 4.96995 -0.0403636 2.45006
lowerneck -36.9504 -1.47613 1.69909
upperneck 40.4307 -1.89359 1.15966
head 24.4649 0.55006 0.0904113
rclavicle -3.52843e-015 4.37326e-015
rhumerus -33.5343 -20.609 -77.7481
rradius 29.1355
rwrist 32.9658
rhand -5.35493 -6.64247
rfingers 7.12502
rthumb 20.4524 -35.5853
lclavicle -3.52843e-015 4.37326e-015
lhumerus -22.8025 0.715372 87.5122
lradius 32.9863
lwrist -39.1467
lhand -1.91808 3.97978
lfingers 7.12502
lthumb 23.752 32.5319
rfemur -15.9902 8.40777 20.3704
rtibia 34.2766
rfoot -21.1835 -22.9878
rtoes -11.0636
lfemur -18.4151 -6.5902 -24.645
ltibia 33.3852
lfoot -8.09231 23.5622
ltoes 0.261858
197
root 1.71143 15.662 3.76017 -171.904 1.32764 177.608
lowerback -6.56623 -0.260523 -5.477
upperback 1.25281 0.171198 -0.593223
thorax 4.98518 -0.0527252 2.47863
lowerneck -37.0261 -1.48111 1.6678
upperneck 40.4418 -1.89859 1.18357
head 24.5048 0.545555 0.10827
rclavicle -1.21756e-015 -2.5842e-015
rhumerus -33.8931 -21.3744 -77.2223
rradius 28.6656
rwrist 33.4574
rhand -5.28108 -6.66548
rfingers 7.12502
rthumb 20.5233 -35.6007
lclavicle -1.21756e-015 -2.5842e-015
lhumerus -23.0076 2.25723 87.1816
lradius 31.6196
lwrist -39.9992
lhand -1.79812 4.14047
lfingers 7.12502
lthumb 23.867 32.6776
rfemur -16.0414 8.36167 20.33
rtibia 34.2412
rfoot -20.9968 -22.9498
rtoes -10.7
lfemur -18.4702 -6.61569 -24.6866
ltibia 33.3591
lfoot -8.01809 23.5635
ltoes 0.291554
198
root 1.71324 15.6645 3.75253 -171.836 1.30124 177.586
lowerback -6.55408 -0.275904 -5.50359
upperback 1.25889 0.151503 -0.580826
thorax 4.98636 -0.0636658 2.50432
lowerneck -37.052 -1.46964 1.65823
upperneck 40.4133 -1.88607 1.18788
head 24.4878 0.544741 0.114397
rclavicle -1.44119e-015 8.54774e-015
rhumerus -34.3131 -22.1382 -76.6444
rradius 28.1936
rwrist 33.9437
rhand -5.21733 -6.72762
rfingers 7.12502
rthumb 20.5846 -35.6562
lclavicle -1.44119e-015 8.54774e-015
lhumerus -23.2665 3.91272 86.7878
lradius 30.2763
lwrist -40.8915
lhand -1.72205 4.36396
lfingers 7.12502
lthumb 23.94 32.8915
rfemur -16.0622 8.31588 20.3062
rtibia 34.1925
rfoot -20.785 -22.9122
rtoes -10.2995
lfemur -18.5089 -6.64013 -24.7169
ltibia 33.342
lfoot -7.95458 23.5598
ltoes 0.310548
199
root 1.71472 15.667 3.74445 -171.782 1.26736 177.574
lowerback -6.52363 -0.289588 -5.51307
upperback 1.26325 0.130855 -0.564236
thorax 4.97537 -0.0744115 2.52464
lowerneck -37.0681 -1.44738 1.66583
upperneck 40.362 -1.86137 1.16859
head 24.4442 0.545174 0.106127
rclavicle 7.95139e-016 3.97569e-016
rhumerus -34.7825 -22.8623 -76.0292
rradius 27.721
rwrist 34.4077
rhand -5.15799 -6.83646
rfingers 7.12502
rthumb 20.6416 -35.7589
lclavicle 7.95139e-016 3.97569e-016
lhumerus -23.5751 5.6843 86.3179
lradius 28.9468
lwrist -41.8632
lhand -1.69079 4.62105
lfingers 7.12502
lthumb 23.9699 33.1447
rfemur -16.0569 8.26599 20.297
rtibia 34.1298
rfoot -20.5602 -22.8735
rtoes -9.87298
lfemur -18.5349 -6.66877 -24.7367
ltibia 33.3342
lfoot -7.91061 23.5587
ltoes 0.326864
200
root 1.7161 15.6693 3.73574 -171.736 1.22107 177.569
lowerback -6.48548 -0.301405 -5.50618
upperback 1.26994 0.110921 -0.549383
thorax 4.96237 -0.0843198 2.53403
lowerneck -37.0661 -1.45329 1.63263
upperneck 40.3135 -1.86336 1.1741
head 24.3984 0.533986 0.111915
rclavicle -3.72721e-016 -5.96354e-016
rhumerus -35.2946 -23.565 -75.3785
rradius 27.2418
rwrist 34.8817
rhand -5.10952 -6.96022
rfingers 7.12502
rthumb 20.6882 -35.8776
lclavicle -3.72721e-016 -5.96354e-016
lhumerus -23.9204 7.54895 85.7647
lradius 27.6313
lwrist -42.8955
lhand -1.70179 4.92504
lfingers 7.12502
lthumb 23.9594 33.45
rfemur -16.0296 8.21517 20.299
rtibia 34.0563
rfoot -20.3468 -22.8374
rtoes -9.43671
lfemur -18.5511 -6.70242 -24.7488
ltibia 33.3319
lfoot -7.88852 23.5586
ltoes 0.36097
201
root 1.71752 15.6715 3.72652 -171.693 1.16557 177.571
lowerback -6.45036 -0.308991 -5.4813
upperback 1.28358 0.0959084 -0.539904
thorax 4.95791 -0.0915253 2.52825
lowerneck -37.0884 -1.47575 1.58518
upperneck 40.2747 -1.88965 1.19291
head 24.3716 0.514782 0.12086
rclavicle -8.44835e-016 -8.74653e-015
rhumerus -35.8351 -24.2505 -74.7039
rradius 26.7617
rwrist 35.3497
rhand -5.04976 -7.08942
rfingers 7.12502
rthumb 20.7456 -36.0005
lclavicle -8.44835e-016 -8.74653e-015
lhumerus -24.2881 9.48671 85.1181
lradius 26.3199
lwrist -44.022
lhand -1.74772 5.25608
lfingers 7.12502
lthumb 23.9153 33.7869
rfemur -15.9894 8.15976 20.312
rtibia 33.976
rfoot -20.1558 -22.8019
rtoes -9.00616
lfemur -18.5624 -6.7468 -24.7511
ltibia 33.3325
lfoot -7.88106 23.5657
ltoes 0.407179
202
root 1.71913 15.6736 3.71679 -171.65 1.10872 177.568
lowerback -6.42039 -0.310699 -5.45119
upperback 1.30081 0.0895151 -0.539755
thorax 4.95939 -0.0942763 2.51076
lowerneck -37.1408 -1.51664 1.51672
upperneck 40.2572 -1.94275 1.23893
head 24.3772 0.488857 0.142156
rclavicle 1.06847e-015 -7.15625e-015
rhumerus -36.4017 -24.9569 -73.9865
rradius 26.2567
rwrist 35.8552
rhand -5.00079 -7.17836
rfingers 7.12502
rthumb 20.7927 -36.0843
lclavicle 1.06847e-015 -7.15625e-015
lhumerus -24.6849 11.5256 84.3632
lradius 25.0129
lwrist -45.2946
lhand -1.80299 5.60257
lfingers 7.12502
lthumb 23.8623 34.1403
rfemur -15.9437 8.09941 20.3222
rtibia 33.8941
rfoot -20.0007 -22.7557
rtoes -8.57688
lfemur -18.5713 -6.79925 -24.7562
ltibia 33.3324
lfoot -7.88019 23.5837
ltoes 0.460445
203
root 1.72106 15.6756 3.70646 -171.603 1.05646 177.568
lowerback -6.40582 -0.306798 -5.41643
upperback 1.32207 0.0916889 -0.543532
thorax 4.97312 -0.0929375 2.48749
lowerneck -37.1735 -1.56653 1.43645
upperneck 40.2412 -2.01007 1.30802
head 24.3784 0.460476 0.175008
rclavicle -1.36664e-015 -9.93923e-015
rhumerus -36.9977 -25.6713 -73.2308
rradius 25.7497
rwrist 36.3776
rhand -4.94598 -7.24147
rfingers 7.12502
rthumb 20.8453 -36.1416
lclavicle -1.36664e-015 -9.93923e-015
lhumerus -25.1319 13.6837 83.4885
lradius 23.7304
lwrist -46.7127
lhand -1.86228 5.94515
lfingers 7.12502
lthumb 23.8055 34.4903
rfemur -15.8996 8.0398 20.3358
rtibia 33.8137
rfoot -19.8835 -22.7042
rtoes -8.18234
lfemur -18.5811 -6.85615 -24.757
ltibia 33.3321
lfoot -7.87747 23.6144
ltoes 0.531118
